<?xml version="1.0" encoding="utf-8"?>
<svg viewBox="0 0 500 500" xmlns="http://www.w3.org/2000/svg" xmlns:bx="https://boxy-svg.com">
  <circle style="fill: rgb(37, 35, 186);" cx="245.781" cy="249.824" r="227.035"/>
  <path style="fill: rgb(243, 236, 236); stroke: rgba(0, 0, 0, 0);" d="M 137.414 195.612 C 131.955 78.287 346.439 51.267 353.838 210.39 L 246.561 412.322 L 137.414 195.612 Z"/>
  <path style="fill: rgb(16, 37, 202); stroke: rgba(0, 0, 0, 0);" d="M 147.004 196.798 C 141.988 89.061 338.741 60.441 345.539 206.562 L 246.592 390.859 L 147.004 196.798 Z"/>
  <path d="M 344.266 216.129 m -41.534 0 a 41.534 41.487 0 1 0 83.068 0 a 41.534 41.487 0 1 0 -83.068 0 Z M 344.266 216.129 m -33.131 0 a 33.131 32.316 0 0 1 66.262 0 a 33.131 32.316 0 0 1 -66.262 0 Z" style="fill: rgb(251, 249, 249);" transform="matrix(-0.704877, 0.709329, -0.73329, -0.680765, 645.676382, 89.396036)" bx:shape="ring 344.266 216.129 33.131 32.316 41.534 41.487 1@458b81d6"/>
</svg>